<svg width="62" height="54" viewBox="0 0 62 54" fill="none" xmlns="http://www.w3.org/2000/svg">
<rect width="10" height="26" fill="#C7C0B8"/>
<rect x="29" y="29" width="9" height="29" transform="rotate(90 29 29)" fill="#C7C0B8"/>
<path d="M28 46.9091L28 54L24.8751 53.9614C17.7675 53.8735 12.0404 48.108 12 41L19.3055 41C19.3055 44.2635 21.9511 46.9091 25.2146 46.9091L28 46.9091Z" fill="#C7C0B8"/>
<rect x="19" width="10" height="26" fill="#C7C0B8"/>
<rect x="29" y="16" width="10" height="29" transform="rotate(90 29 16)" fill="#C7C0B8"/>
<rect x="62" width="8" height="30" transform="rotate(90 62 0)" fill="#C7C0B8"/>
<rect x="62" y="29" width="7" height="30" transform="rotate(90 62 29)" fill="#C7C0B8"/>
<rect x="32" y="34" width="7" height="6" fill="#C7C0B8"/>
<rect x="56" y="43" width="6" height="7" fill="#C7C0B8"/>
<rect x="62" y="9" width="8" height="30" transform="rotate(90 62 9)" fill="#C7C0B8"/>
<rect x="8" y="54" width="8" height="25" transform="rotate(-180 8 54)" fill="#C7C0B8"/>
<rect x="62" y="38" width="7" height="30" transform="rotate(90 62 38)" fill="#C7C0B8"/>
<rect x="62" y="19" width="7" height="30" transform="rotate(90 62 19)" fill="#C7C0B8"/>
<rect x="62" y="47" width="7" height="30" transform="rotate(90 62 47)" fill="#C7C0B8"/>
</svg>
