<svg width="124" height="35" xmlns="http://www.w3.org/2000/svg"><g fill="none" fill-rule="evenodd"><path d="M62.238 23.968c-.431-.32-1.589-.573-2.58-.573h-3.37c-.982 0-1.782-.292-1.782-.654 0-.365.8-.65 1.783-.65h4.463c.983 0 1.788-.806 1.788-1.796v-4.738c0-.99-.354-2.048-.792-2.363-.43-.31-1.594-.568-2.575-.568h-3.37c-.983 0-1.79-.162-1.79-.357 0-.204.807-.361 1.79-.361h4.655c.985 0 1.79-.8 1.79-1.786v-6.22c0-.982-.351-2.044-.792-2.355-.433-.314-1.593-.568-2.577-.568L38.544.977a1.79 1.79 0 0 0-1.794 1.789V31.21c0 .977.353 2.038.789 2.349.438.317 1.6.57 2.583.57l21.12.004c.99 0 1.79-.803 1.79-1.792v-6.021c0-.98-.358-2.051-.794-2.353" fill="#FFECB2"/><path d="M89.893 15.369c-.44-.32-1.607-.574-2.591-.574h-8.99c-.987 0-1.775.796-1.764 1.791l.074 4.04c.013.983-.074 1.87-.191 1.96-.12.098-.846-.641-.907-1.62 0 0-.235-4.68-.235-6.127 0-1.562 1.37-1.562 2.447-1.76 1.078-.195 9.978-.035 9.978-.035a1.744 1.744 0 0 0 1.782-1.746V3.902c0-.983-.35-2.045-.79-2.356-.43-.313-1.588-.632-2.568-.708 0 0-5.773-.451-10.565.139-4.805.588-8.63.778-12.55 4.798-3.924 4.017-4.02 6.751-4.22 11.159-.182 4.085 6.355 12.719 6.355 12.719.588.776 1.72 1.91 2.504 2.502 0 0 .259.209 1.158.51 4.702 1.56 6.372 1.464 8.036 1.464 1.666 0 11.64-.08 11.64-.08a1.864 1.864 0 0 0 1.827-1.802l.315-14.531c.023-.976-.315-2.037-.745-2.347" fill="#F8B19B"/><path d="M122.06 34.146c.98 0 1.563-.771 1.287-1.71l-8.426-28.795c-.271-.942-.853-1.971-1.29-2.285-.437-.305-1.592-.566-2.572-.566H95.95c-.98 0-2.012.767-2.285 1.711l-8.418 28.793c-.283.943-.156 1.97.283 2.283.434.32 1.598.569 2.58.569h10.008c.98 0 1.947-.534 2.134-1.192.2-.648 1.16-1.187 2.144-1.187h4.126c.983 0 1.87.278 1.977.619.091.344.535.879.965 1.191.44.32 1.595.569 2.575.569h10.02z" fill="#8ACBEF"/><path d="M35.71 1.483c-.435-.31-1.593-.567-2.581-.567h-10.13c-.436 0-.989.373-1.42.885-.958 1.126-2.64 2.939-3.529 2.95-.881.008-2.724-1.805-3.78-2.94-.49-.519-1.164-.895-1.729-.895H2.626c-.988 0-1.79.804-1.79 1.788v28.441c0 .982.356 2.04.787 2.35.437.314 1.604.578 2.58.578h9.048c.987 0 1.787-.808 1.787-1.79v-4.815c0-.984.57-1.218 1.266-.525l.306.313c.696.695 1.628 1.515 2.06 1.826.438.315 1.36 0 2.054-.692l.302-.306c.703-.7 1.275-.46 1.275.525v2.536c0 .982.35 2.04.785 2.35.434.314 1.597.578 2.578.578h9.043c.989 0 1.793-.808 1.793-1.79V3.846c0-.982-.358-2.044-.79-2.362" fill="#AACBA1"/><path d="M38.544 32.988c-.99 0-1.794-.8-1.794-1.778V2.766c0-.99.805-1.79 1.794-1.79L58.879.98c.984 0 1.788.796 1.788 1.787v6.21c0 .982-.804 1.788-1.788 1.788h-4.656c-.987 0-1.792.419-1.792.937 0 .507.805.925 1.792.925h4.95c.981 0 1.79.813 1.79 1.785v4.746c0 .987-.809 1.792-1.79 1.792h-4.466c-.981 0-1.779.556-1.779 1.22 0 .676.798 1.226 1.78 1.226h4.95c.991 0 1.796.804 1.796 1.784v6.031a1.79 1.79 0 0 1-1.796 1.778H38.544z" fill="#FFCA05"/><path d="M86.127 11.911a1.76 1.76 0 0 0 1.795-1.752V2.766c0-.99-.803-1.852-1.784-1.928 0 0-5.773-.451-10.565.139-4.805.587-8.63.778-12.55 4.798-3.924 4.017-4.02 6.751-4.22 11.158-.2 4.404 3.73 13.025 8.439 14.585 4.703 1.569 6.366 1.47 8.035 1.47 1.664 0 11.635-.08 11.635-.08a1.867 1.867 0 0 0 1.829-1.806l.318-14.516a1.748 1.748 0 0 0-1.757-1.79h-8.99c-.987 0-1.775.795-1.764 1.79l.074 4.041c-.082 2-.74 2.76-1.152 2.768-.41.01-.927-.903-1.218-1.427-1.076-1.938-.549-6.701-.549-8.264 0-1.566 1.374-1.566 2.455-1.76 1.072-.199 9.969-.033 9.969-.033" fill="#EC1D24"/><path d="M98.685 31.822c.183-.657 1.147-1.194 2.13-1.194h5.37c.984 0 1.953.537 2.133 1.194.201.648 1.162 1.188 2.143 1.188h10.017c.986 0 1.555-.773 1.282-1.716l-8.416-28.793c-.277-.943-1.306-1.712-2.285-1.712H95.95c-.98 0-2.012.77-2.285 1.712l-8.418 28.793c-.282.943.296 1.716 1.288 1.716h10.003c.989 0 1.95-.54 2.147-1.188" fill="#0099D4"/><path d="M23.17.915c-.543 0-1.15.409-1.574.968-.93 1.222-2.566 3.187-3.51 3.228-1.054.047-3.235-2.466-4.173-3.62-.28-.354-.855-.576-1.506-.576h-9.78c-.988 0-1.792.805-1.792 1.79V31.144a1.79 1.79 0 0 0 1.791 1.784h9.047a1.78 1.78 0 0 0 1.778-1.784V25.89c0-.986.575-1.217 1.27-.52l1.89 1.886a1.8 1.8 0 0 0 2.532 0l1.883-1.886c.703-.697 1.274-.466 1.274.524v5.251c0 .983.798 1.784 1.783 1.784h9.046c.988 0 1.786-.801 1.786-1.784V2.704A1.79 1.79 0 0 0 33.13.915H23.17z" fill="#56AD47"/><path d="M44.08 11.847c-4.223 1.255-7.145 5.477-7.109 10.26.043 5.085 3.228 9.125 8.321 10.545 3.254.908 6.503.342 9.167-1.592 2.584-1.877 4.39-4.912 4.492-7.543l-5.036-.199c-.038.817-.897 2.557-2.424 3.665-1.434 1.04-3.054 1.313-4.84.81-4.262-1.188-4.618-4.68-4.626-5.723-.017-2.09 1.065-4.672 3.491-5.391 2.372-.689 4.081-.318 5.228.277-2.563 1.91-6.388 4.753-6.388 4.753l3.005 4.049 10.725-7.96-1.243-1.973c-1.416-2.267-5.922-6.001-12.764-3.978" fill="#0099D4"/><path d="M82.534 4.679v6.57h-.931c-.173-4.878-4.388-5.08-6.946-5.08H72.56v18.785c0 1.754 1.165 2.047 1.965 2.047h1.462v.903H64.424V27h1.07c.79 0 1.953-.293 1.953-2.047V7.626c0-1.753-1.163-2.053-1.953-2.053h-1.07V4.68h18.11z" fill="#56AD47"/><path fill="#EC1D24" d="M14.199 6.065H7.542v18.01h4.116V9.793l4.217 14.09h4.115l4.215-14.09v14.284h4.116V6.065h-6.668l-3.721 14.198z"/><path d="M98.056 21.467c0-3.151.597-5.805 1.763-7.91 1.056-1.914 2.278-2.848 3.74-2.848.823 0 1.66.194 2.495.563-.094.635-.2 1.393-.2 1.393-.446 3.037-1.735 5.72-3.825 7.974-1.9 2.056-3.006 2.363-3.492 2.363-.425 0-.481-1.08-.481-1.535m14.689-1.678l-.996-.603-.498 1.06c-.804 1.714-1.429 2.47-1.86 2.83.04-.381.098-.949.224-1.904l.18-1.271 1.264-8.802c0-.03.241-1.207.241-1.207 0 .014.24-1.051.24-1.051-.005.032.102-.386.102-.386l.255-.932-.909-.336c-1.084-.387-2.384-.577-3.87-.577-3.924 0-7.347 1.611-10.186 4.785-2.81 3.137-4.23 6.904-4.23 11.19 0 4.752 2.364 5.463 3.767 5.463 1.608 0 3.364-.86 5.368-2.633a21.277 21.277 0 0 0 2.59-2.7c-.042.303-.062.54-.062.54a12.3 12.3 0 0 0-.151 1.78c0 2.79 1.912 3.013 2.5 3.013 1.668 0 3.354-1.07 5.125-3.26 1.709-2.105 1.95-2.91 1.95-3.462 0-.612-.356-1.126-1.044-1.537" fill="#FFCA05"/></g></svg>